<?xml version="1.0" encoding="UTF-8"?>
<!DOCTYPE svg PUBLIC "-//W3C//DTD SVG 1.1//EN" "http://www.w3.org/Graphics/SVG/1.1/DTD/svg11.dtd">
<!-- Creator: CorelDRAW X7 -->
<svg xmlns="http://www.w3.org/2000/svg" xml:space="preserve" width="104.885mm" height="88.6166mm" version="1.1" style="shape-rendering:geometricPrecision; text-rendering:geometricPrecision; image-rendering:optimizeQuality; fill-rule:evenodd; clip-rule:evenodd"
viewBox="0 0 1475 1247"
 xmlns:xlink="http://www.w3.org/1999/xlink">
 <defs>
  <style type="text/css">
   <![CDATA[
    .fil0 {fill:white;fill-rule:nonzero}
   ]]>
  </style>
 </defs>
 <g id="Layer_x0020_1">
  <metadata id="CorelCorpID_0Corel-Layer"/>
  <path class="fil0" d="M1430 261c47,81 56,173 34,257 -23,84 -77,159 -158,206l-48 28 -28 -49 -62 -107 -51 -88 0 0c-46,-81 -56,-173 -33,-257 22,-83 76,-159 157,-205l49 -28 28 48 112 196 0 -1zm-1288 559c-13,32 -19,67 -17,102 2,34 12,68 30,99 31,54 81,90 137,105 39,11 80,11 120,0l-367 -636 0 1c-46,-81 -56,-174 -33,-257 22,-84 76,-159 157,-206l49 -28 28 49 398 690 0 0c47,80 56,173 34,256 -23,84 -77,160 -158,206 -81,47 -173,56 -257,34 -83,-23 -159,-77 -205,-158 -27,-46 -42,-97 -45,-147 -3,-53 6,-105 26,-153l103 43zm1072 193c-23,84 -77,159 -158,205l-48 29 -28 -49 -62 -107 0 0 -337 -583 0 0c-46,-81 -56,-173 -33,-257 22,-84 76,-159 157,-206l49 -28 28 49 398 690 0 0c47,81 56,173 34,257z"/>
 </g>
</svg>
