<?xml version="1.0" encoding="UTF-8"?>
<!DOCTYPE svg PUBLIC "-//W3C//DTD SVG 1.1//EN" "http://www.w3.org/Graphics/SVG/1.1/DTD/svg11.dtd">
<!-- Creator: CorelDRAW X7 -->
<svg xmlns="http://www.w3.org/2000/svg" xml:space="preserve" width="104.841mm" height="88.6166mm" version="1.1" style="shape-rendering:geometricPrecision; text-rendering:geometricPrecision; image-rendering:optimizeQuality; fill-rule:evenodd; clip-rule:evenodd"
viewBox="0 0 9878 8350"
 xmlns:xlink="http://www.w3.org/1999/xlink">
 <defs>
  <style type="text/css">
   <![CDATA[
    .fil0 {fill:#6C757D;fill-rule:nonzero}
   ]]>
  </style>
 </defs>
 <g id="Layer_x0020_1">
  <metadata id="CorelCorpID_0Corel-Layer"/>
  <path class="fil0" d="M9574 1748c315,542 375,1158 228,1720 -154,563 -516,1065 -1058,1380l-321 187 -188 -328 -415 -716 -342 -590 0 0c-308,-542 -375,-1158 -221,-1720 148,-556 509,-1065 1052,-1373l328 -187 187 321 750 1312 0 -6 0 0zm-8624 3742c-87,215 -127,449 -114,683 14,228 81,456 201,663 208,362 543,603 917,703 262,74 536,74 804,0l-2457 -4258 0 7c-308,-543 -375,-1165 -221,-1721 147,-563 509,-1065 1051,-1380l328 -187 187 328 2665 4620 0 0c315,536 375,1158 228,1714 -154,563 -516,1072 -1058,1380 -542,314 -1158,374 -1721,227 -555,-154 -1064,-515 -1372,-1058 -181,-308 -282,-649 -302,-984 -20,-355 41,-703 174,-1024l690 287 0 0zm7178 1293c-154,562 -516,1064 -1058,1372l-321 195 -188 -329 -415 -716 0 0 -2256 -3904 0 0c-308,-542 -375,-1158 -221,-1720 147,-563 508,-1065 1051,-1380l328 -187 187 328 2665 4620 0 0c315,542 375,1158 228,1721l0 0z"/>
 </g>
</svg>
