<?xml version="1.0" encoding="UTF-8"?>
<!DOCTYPE svg PUBLIC "-//W3C//DTD SVG 1.1//EN" "http://www.w3.org/Graphics/SVG/1.1/DTD/svg11.dtd">
<!-- Creator: CorelDRAW X7 -->
<svg xmlns="http://www.w3.org/2000/svg" xml:space="preserve" width="556.418mm" height="88.6166mm" version="1.1" style="shape-rendering:geometricPrecision; text-rendering:geometricPrecision; image-rendering:optimizeQuality; fill-rule:evenodd; clip-rule:evenodd"
viewBox="0 0 41521 6613"
 xmlns:xlink="http://www.w3.org/1999/xlink">
 <defs>
  <style type="text/css">
   <![CDATA[
    .fil0 {fill:white;fill-rule:nonzero}
   ]]>
  </style>
 </defs>
 <g id="Layer_x0020_1">
  <metadata id="CorelCorpID_0Corel-Layer"/>
  <g id="_530939728">
   <path class="fil0" d="M7587 1387c247,428 297,918 178,1363 -119,443 -407,842 -836,1090l-257 148 -148 -257 -328 -568 -268 -468 -1 1c-247,-428 -297,-918 -178,-1363 119,-444 407,-844 835,-1091l257 -148 149 258 596 1036 1 -1zm-6833 2964c-71,171 -103,357 -91,542 11,178 63,357 159,523 166,287 433,480 729,560 205,54 425,55 635,-4l-1945 -3370 -1 0c-248,-428 -297,-918 -178,-1362 119,-445 407,-844 835,-1092l257 -148 149 258 2114 3661 1 -1c247,428 296,918 177,1363 -119,444 -407,844 -835,1091 -430,248 -919,298 -1363,179 -444,-119 -843,-407 -1091,-837 -142,-246 -219,-514 -236,-782 -18,-278 29,-556 136,-809l548 228zm5685 1022c-119,444 -407,844 -835,1091l-258 149 -149 -258 -328 -568 1 -1 -1786 -3092 -1 0c-247,-428 -297,-918 -178,-1362 120,-445 408,-844 836,-1092l257 -148 149 258 2113 3660 1 0c247,428 297,918 178,1363z"/>
   <path class="fil0" d="M11780 1552l0 1221c-183,-206 -445,-304 -754,-304 -711,0 -1258,505 -1258,1296 0,791 547,1296 1258,1296 337,0 604,-107 787,-327l0 290 697 0 0 -3472 -730 0zm-627 2910c-365,0 -646,-262 -646,-697 0,-435 281,-697 646,-697 360,0 641,262 641,697 0,435 -281,697 -641,697z"/>
   <path id="1" class="fil0" d="M14381 5061c801,0 1381,-538 1381,-1296 0,-758 -580,-1296 -1381,-1296 -800,0 -1385,538 -1385,1296 0,758 585,1296 1385,1296zm0 -599c-365,0 -645,-262 -645,-697 0,-435 280,-697 645,-697 365,0 641,262 641,697 0,435 -276,697 -641,697z"/>
   <path id="2" class="fil0" d="M17779 2469c-342,0 -637,117 -833,332l0 -295 -698 0 0 2518 730 0 0 -1245c0,-463 253,-678 604,-678 323,0 510,187 510,594l0 1329 730 0 0 -1442c0,-767 -449,-1113 -1043,-1113z"/>
   <path id="3" class="fil0" d="M21012 2469c-342,0 -636,117 -833,332l0 -295 -697 0 0 2518 730 0 0 -1245c0,-463 252,-678 603,-678 323,0 510,187 510,594l0 1329 730 0 0 -1442c0,-767 -449,-1113 -1043,-1113z"/>
   <path id="4" class="fil0" d="M25209 3774c0,-809 -571,-1305 -1310,-1305 -767,0 -1343,543 -1343,1296 0,749 566,1296 1437,1296 453,0 804,-140 1038,-407l-388 -421c-173,164 -365,243 -632,243 -383,0 -650,-192 -720,-505l1904 0c5,-61 14,-141 14,-197zm-1305 -753c327,0 566,206 617,524l-1240 0c52,-323 290,-524 623,-524z"/>
   <polygon id="5" class="fil0" points="25696,5024 26426,5024 26426,1552 25696,1552 "/>
   <polygon id="6" class="fil0" points="30501,2506 29888,4210 29289,2506 28672,2506 28054,4210 27460,2506 26772,2506 27680,5024 28382,5024 28967,3461 29533,5024 30235,5024 31147,2506 "/>
   <path id="7" class="fil0" d="M32616 5061c801,0 1381,-538 1381,-1296 0,-758 -580,-1296 -1381,-1296 -800,0 -1385,538 -1385,1296 0,758 585,1296 1385,1296zm0 -599c-365,0 -645,-262 -645,-697 0,-435 280,-697 645,-697 365,0 641,262 641,697 0,435 -276,697 -641,697z"/>
   <path id="8" class="fil0" d="M35181 2838l0 -332 -698 0 0 2518 730 0 0 -1189c0,-482 267,-702 670,-702 56,0 102,5 163,10l0 -674c-388,0 -688,126 -865,369z"/>
   <polygon id="9" class="fil0" points="38358,5024 39242,5024 38100,3573 39149,2506 38278,2506 37211,3517 37211,1552 36481,1552 36481,5024 37211,5024 37211,4383 37562,4036 "/>
   <path id="10" class="fil0" d="M40332 5061c754,0 1189,-332 1189,-800 0,-992 -1521,-576 -1521,-1006 0,-131 141,-234 468,-234 229,0 477,47 725,187l244 -519c-239,-141 -623,-220 -969,-220 -734,0 -1165,337 -1165,814 0,1006 1521,584 1521,997 0,140 -127,229 -463,229 -309,0 -651,-98 -875,-243l-244 524c234,154 665,271 1090,271z"/>
  </g>
 </g>
</svg>
