<?xml version="1.0" encoding="UTF-8"?>
<!DOCTYPE svg PUBLIC "-//W3C//DTD SVG 1.1//EN" "http://www.w3.org/Graphics/SVG/1.1/DTD/svg11.dtd">
<!-- Creator: CorelDRAW X7 -->
<svg xmlns="http://www.w3.org/2000/svg" xml:space="preserve" width="402.76mm" height="226.908mm" version="1.1" style="shape-rendering:geometricPrecision; text-rendering:geometricPrecision; image-rendering:optimizeQuality; fill-rule:evenodd; clip-rule:evenodd"
viewBox="0 0 74965 42234"
 xmlns:xlink="http://www.w3.org/1999/xlink">
 <defs>
  <style type="text/css">
   <![CDATA[
    .fil0 {fill:white;fill-rule:nonzero}
   ]]>
  </style>
 </defs>
 <g id="Layer_x0020_1">
  <metadata id="CorelCorpID_0Corel-Layer"/>
  <path class="fil0" d="M20158 38783c-2300,2301 -5328,3451 -8354,3451 -3025,0 -6053,-1150 -8353,-3451l0 0c-2301,-2300 -3451,-5328 -3451,-8354 0,-3025 1150,-6053 3451,-8353l18625 -18625c2300,-2301 5328,-3451 8353,-3451 3026,0 6054,1150 8354,3451l0 0c1409,1408 1409,3692 0,5100 -1408,1409 -3692,1409 -5100,0l0 0c-892,-891 -2071,-1337 -3254,-1337 -1182,0 -2361,446 -3253,1337l-18625 18625c-891,892 -1337,2071 -1337,3253 0,1183 446,2362 1337,3254l0 0c892,891 2071,1337 3253,1337 1183,0 2362,-446 3254,-1337l30037 -30232c2301,-2301 5329,-3451 8354,-3451 3025,0 6053,1150 8354,3451l0 0c2300,2300 3450,5328 3450,8353 0,3026 -1150,6054 -3450,8354l-5126 5126c-388,522 -692,1092 -894,1690 -197,588 -305,1239 -305,1936l0 1c0,1676 688,3203 1797,4312 1109,1109 2636,1797 4312,1797l55 0c1676,0 3203,-688 4312,-1797 1109,-1109 1797,-2636 1797,-4312l0 -1c0,-924 -191,-1778 -534,-2527 -364,-797 -901,-1505 -1562,-2078 -1502,-1300 -1666,-3571 -367,-5073 1300,-1502 3571,-1666 5073,-366 1429,1239 2594,2781 3394,4530 777,1698 1210,3566 1210,5514l0 1c0,3668 -1498,6999 -3911,9412 -2413,2413 -5744,3911 -9412,3911l-55 0c-3667,0 -6999,-1498 -9412,-3911 -1466,-1466 -2594,-3271 -3254,-5284l-5743 5744c-2301,2301 -5329,3451 -8354,3451 -3025,0 -6053,-1150 -8354,-3451 -1408,-1408 -1408,-3692 0,-5100 1409,-1409 3692,-1409 5101,0 891,891 2071,1337 3253,1337 1182,0 2362,-446 3253,-1337l10515 -10516 8110 -8110c892,-891 1337,-2070 1337,-3253 0,-1182 -445,-2361 -1337,-3253l0 0c-891,-891 -2071,-1337 -3253,-1337 -1182,0 -2362,446 -3253,1337l-30038 30232z"/>
 </g>
</svg>
