<?xml version="1.0" encoding="UTF-8"?>
<!DOCTYPE svg PUBLIC "-//W3C//DTD SVG 1.1//EN" "http://www.w3.org/Graphics/SVG/1.1/DTD/svg11.dtd">
<!-- Creator: CorelDRAW X7 -->
<svg xmlns="http://www.w3.org/2000/svg" xml:space="preserve" width="828.366mm" height="131.933mm" version="1.1" style="shape-rendering:geometricPrecision; text-rendering:geometricPrecision; image-rendering:optimizeQuality; fill-rule:evenodd; clip-rule:evenodd"
viewBox="0 0 45338 7221"
 xmlns:xlink="http://www.w3.org/1999/xlink">
 <defs>
  <style type="text/css">
   <![CDATA[
    .fil0 {fill:#2A60F5;fill-rule:nonzero}
   ]]>
  </style>
 </defs>
 <g id="Layer_x0020_1">
  <metadata id="CorelCorpID_0Corel-Layer"/>
  <g id="_351453688">
   <g id="_530939728">
    <path class="fil0" d="M8284 1515c270,467 325,1002 195,1488 -130,484 -445,919 -913,1190l-281 162 -161 -281 -358 -620 -293 -511 -1 1c-270,-467 -325,-1003 -195,-1488 130,-485 445,-922 912,-1192l281 -161 163 281 650 1132 1 -1zm-7461 3236c-77,187 -112,390 -99,592 12,194 69,390 173,571 182,313 473,524 796,611 224,59 465,60 694,-4l-2124 -3680 -1 0c-271,-467 -324,-1002 -194,-1487 130,-486 444,-922 911,-1192l281 -162 163 282 2308 3997 1 -1c270,468 323,1003 193,1489 -130,484 -444,921 -911,1191 -470,271 -1004,325 -1489,195 -484,-130 -920,-444 -1191,-914 -155,-268 -239,-561 -258,-854 -19,-303 32,-607 149,-883l598 249 0 0zm6208 1116c-130,485 -445,922 -912,1191l-282 163 -162 -282 -358 -620 1 -1 -1951 -3376 -1 0c-269,-468 -324,-1003 -194,-1488 131,-485 445,-921 913,-1192l280 -162 163 282 2307 3997 2 0c269,467 324,1002 194,1488l0 0z"/>
    <path class="fil0" d="M12863 1695l0 1333c-200,-225 -486,-332 -823,-332 -777,0 -1374,551 -1374,1415 0,864 597,1415 1374,1415 368,0 659,-117 859,-357l0 317 761 0 0 -3791 -797 0zm-685 3177c-398,0 -705,-286 -705,-761 0,-475 307,-761 705,-761 393,0 700,286 700,761 0,475 -307,761 -700,761z"/>
    <path id="_1" class="fil0" d="M15703 5526c875,0 1508,-587 1508,-1415 0,-828 -633,-1415 -1508,-1415 -874,0 -1512,587 -1512,1415 0,828 638,1415 1512,1415zm0 -654c-399,0 -704,-286 -704,-761 0,-475 305,-761 704,-761 399,0 700,286 700,761 0,475 -301,761 -700,761z"/>
    <path id="_2" class="fil0" d="M19413 2696c-373,0 -695,128 -909,363l0 -323 -762 0 0 2750 797 0 0 -1360c0,-505 276,-740 659,-740 353,0 557,204 557,649l0 1451 797 0 0 -1575c0,-837 -490,-1215 -1139,-1215z"/>
    <path id="_3" class="fil0" d="M22944 2696c-374,0 -695,128 -910,363l0 -323 -761 0 0 2750 797 0 0 -1360c0,-505 275,-740 659,-740 352,0 556,204 556,649l0 1451 798 0 0 -1575c0,-837 -491,-1215 -1139,-1215z"/>
    <path id="_4" class="fil0" d="M27526 4121c0,-883 -623,-1425 -1430,-1425 -837,0 -1466,593 -1466,1415 0,818 618,1415 1569,1415 494,0 878,-153 1133,-444l-424 -460c-188,179 -398,266 -690,266 -418,0 -709,-210 -786,-552l2079 0c6,-67 15,-154 15,-215zm-1424 -822c357,0 618,225 673,572l-1354 0c57,-353 317,-572 680,-572l1 0z"/>
    <polygon id="_5" class="fil0" points="28058,5486 28855,5486 28855,1695 28058,1695 "/>
    <polygon id="_6" class="fil0" points="33305,2736 32636,4597 31982,2736 31308,2736 30633,4597 29984,2736 29233,2736 30225,5486 30991,5486 31630,3779 32248,5486 33015,5486 34010,2736 "/>
    <path id="_7" class="fil0" d="M35614 5526c875,0 1508,-587 1508,-1415 0,-828 -633,-1415 -1508,-1415 -873,0 -1512,587 -1512,1415 0,828 639,1415 1512,1415zm0 -654c-398,0 -704,-286 -704,-761 0,-475 306,-761 704,-761 399,0 700,286 700,761 0,475 -301,761 -700,761z"/>
    <path id="_8" class="fil0" d="M38415 3099l0 -363 -762 0 0 2750 797 0 0 -1298c0,-527 292,-767 732,-767 61,0 111,5 178,11l0 -736c-424,0 -751,138 -945,403z"/>
    <polygon id="_9" class="fil0" points="41884,5486 42850,5486 41603,3901 42748,2736 41797,2736 40632,3840 40632,1695 39835,1695 39835,5486 40632,5486 40632,4786 41015,4407 "/>
    <path id="_10" class="fil0" d="M44040 5526c823,0 1298,-362 1298,-873 0,-1083 -1661,-629 -1661,-1099 0,-143 154,-255 511,-255 250,0 521,51 792,204l266 -567c-261,-154 -680,-240 -1058,-240 -801,0 -1272,368 -1272,889 0,1098 1661,638 1661,1088 0,153 -139,251 -506,251 -337,0 -710,-107 -955,-266l-266 572c255,169 726,296 1190,296z"/>
   </g>
  </g>
 </g>
</svg>
